PathFileType	4	(X/Y/Z)	/Users/itak/Documents/Research/Walk-IL/dataset/trc/00297_00010.trc
DataRate	CameraRate	NumFrames	NumMarkers	Units	OrigDataRate	OrigDataStartFrame	OrigNumFrames
100.000000	100.000000	4	53	mm	100.000000	141	377
Frame#	Time	RPSI			LPSI			L3			STRN			T10			C7			CLAV			RBAK			LBAK			LSHO			LUPA			LAEL			LAOL			LWTS			LWPS			LFRA			LIFD			LHPS			LHTS			RSHO			RUPA			RAEL			RAOL			RWTS			RWPS			RFRA			RIFD			RHTS			RHPS			RBHD			LFHD			RFHD			LBHD			RASI			LASI			LKNE			LTHI			LANK			LTIP			LTOE			LMT1			LMT5			LHEE			RKNE			RTHI			RANK			RTIP			RTOE			RMT1			RMT5			RHEE			LHIP			RHIP			
		X1	Y1	Z1	X2	Y2	Z2	X3	Y3	Z3	X4	Y4	Z4	X5	Y5	Z5	X6	Y6	Z6	X7	Y7	Z7	X8	Y8	Z8	X9	Y9	Z9	X10	Y10	Z10	X11	Y11	Z11	X12	Y12	Z12	X13	Y13	Z13	X14	Y14	Z14	X15	Y15	Z15	X16	Y16	Z16	X17	Y17	Z17	X18	Y18	Z18	X19	Y19	Z19	X20	Y20	Z20	X21	Y21	Z21	X22	Y22	Z22	X23	Y23	Z23	X24	Y24	Z24	X25	Y25	Z25	X26	Y26	Z26	X27	Y27	Z27	X28	Y28	Z28	X29	Y29	Z29	X30	Y30	Z30	X31	Y31	Z31	X32	Y32	Z32	X33	Y33	Z33	X34	Y34	Z34	X35	Y35	Z35	X36	Y36	Z36	X37	Y37	Z37	X38	Y38	Z38	X39	Y39	Z39	X40	Y40	Z40	X41	Y41	Z41	X42	Y42	Z42	X43	Y43	Z43	X44	Y44	Z44	X45	Y45	Z45	X46	Y46	Z46	X47	Y47	Z47	X48	Y48	Z48	X49	Y49	Z49	X50	Y50	Z50	X51	Y51	Z51	X52	Y52	Z52	X53	Y53	Z53	

142	1.41	-42.40102767944336	997.4443359375	453.69873046875	-148.2826843261719	970.6055297851562	317.1461791992188	-79.61331939697266	1057.850463867188	377.8915710449219	105.4652862548828	1228.455200195312	201.0556488037109	-81.50490570068359	1177.4599609375	390.4371032714844	-45.0571403503418	1420.505737304688	343.16552734375	61.51363754272461	1329.690185546875	242.0375366210938	-37.07537460327148	1284.700805664062	437.6891784667969	-132.9944915771484	1388.075927734375	283.0687255859375	-108.050537109375	1392.405517578125	181.2492980957031	-198.1967468261719	1286.264526367188	160.9143218994141	-238.2540130615234	1086.876220703125	166.52099609375	-233.4111328125	1080.633911132812	253.1442413330078	-179.5931549072266	851.6240844726562	162.5684509277344	-249.6124877929688	848.1142578125	142.87646484375	-250.6188812255859	981.9832763671875	158.2863922119141	-211.0174560546875	669.15576171875	176.7907562255859	-259.4785766601562	760.7120971679688	150.0342712402344	-193.8104248046875	750.974853515625	141.9031677246094	112.4765090942383	1389.321166992188	409.6029968261719	153.8007354736328	1330.595825195312	462.2800903320312	215.3031005859375	1065.38623046875	492.4699401855469	129.293212890625	1046.060546875	454.387939453125	298.8897094726562	895.9628295898438	328.9064025878906	319.593017578125	869.9986572265625	408.1818237304688	253.3494873046875	1006.705688476562	470.2496032714844	357.8035888671875	727.1431274414062	274.318115234375	364.4381103515625	800.7650146484375	292.5899353027344	364.0303649902344	779.462646484375	360.0388488769531	62.10551452636719	1586.1396484375	351.0419311523438	67.11763000488281	1582.909423828125	137.7059936523438	141.5697326660156	1582.000732421875	193.7607269287109	-56.55591201782227	1577.302001953125	263.31103515625	154.582763671875	953.5421752929688	346.5534057617188	-11.1151819229126	940.78271484375	156.8917541503906	84.19013977050781	509.7164611816406	81.1370849609375	8.348148345947266	633.1707763671875	102.6222229003906	-3.805744886398315	77.69756317138672	195.8767852783203	36.75017547607422	284.3383483886719	127.2200775146484	194.1456909179688	48.59923934936523	129.088134765625	159.4664459228516	42.29922103881836	201.6227722167969	86.62648773193359	54.36717987060547	117.8311767578125	-7.245981693267822	82.25029754638672	270.4737243652344	104.8497695922852	478.0846557617188	436.4043579101562	149.1966247558594	741.3358154296875	441.4046936035156	-0.1336304098367691	41.14229583740234	489.7255249023438	93.76289367675781	351.78125	428.5090026855469	100.2633056640625	40.05723571777344	315.9662475585938	32.1625862121582	38.92612075805664	328.0792236328125	87.28819274902344	31.0100269317627	431.7649230957031	-72.38922119140625	38.77573394775391	492.8817749023438	-148.0920715332031	920.8226318359375	199.4652709960938	103.0933990478516	955.5831298828125	475.8260803222656	
143	1.42	-34.97573089599609	997.050048828125	448.965087890625	-141.4539184570312	969.9830322265625	313.0253601074219	-72.45767974853516	1057.068359375	373.5624389648438	110.8548965454102	1227.766357421875	195.7252349853516	-74.39239501953125	1176.376953125	386.5486450195312	-38.55826950073242	1419.483520507812	339.1814575195312	67.07779693603516	1328.833862304688	237.06787109375	-29.69887161254883	1283.640625	433.5606079101562	-127.0743713378906	1386.9541015625	279.95751953125	-103.1679000854492	1391.368530273438	177.8356781005859	-193.8927612304688	1285.59912109375	159.0796813964844	-234.9239196777344	1086.56787109375	166.55078125	-228.3152618408203	1080.634765625	253.1077117919922	-177.9055023193359	850.7211303710938	162.7759857177734	-248.2375793457031	847.7152099609375	144.2819976806641	-248.0999450683594	981.6936645507812	159.0148620605469	-210.2119903564453	668.6318969726562	178.24755859375	-258.4805603027344	760.4259033203125	151.9745635986328	-193.0370178222656	750.240478515625	142.8263092041016	119.408073425293	1388.476806640625	404.2213745117188	161.3326873779297	1329.634887695312	456.3811340332031	224.557861328125	1064.462890625	484.292724609375	138.5050811767578	1044.81201171875	446.6195068359375	309.3048095703125	900.9698486328125	315.5158386230469	331.0458374023438	873.0089111328125	393.8489990234375	263.1748962402344	1006.878723144531	460.3546447753906	370.6652221679688	734.867919921875	255.4956817626953	376.2197265625	808.0208740234375	275.9142150878906	376.5776977539062	784.7083129882812	342.6935119628906	68.35745239257812	1585.323608398438	345.8925170898438	71.7132568359375	1581.884887695312	132.5216064453125	146.6080169677734	1581.066040039062	187.9853363037109	-50.95198822021484	1576.385375976562	259.1364135742188	161.58740234375	952.68359375	340.9271850585938	-5.211791038513184	940.0045776367188	152.0228424072266	89.03146362304688	508.9295043945312	76.34593963623047	12.78042697906494	632.1096801757812	97.85208129882812	22.01231002807617	69.47408294677734	175.1463775634766	51.33180618286133	280.4985656738281	114.8152618408203	220.3343963623047	52.22896194458008	105.6692276000977	186.8234100341797	41.66922760009766	178.1263275146484	112.7218780517578	53.17432022094727	95.43240356445312	19.24492454528809	71.1322021484375	249.8417205810547	107.5834732055664	477.4322509765625	434.495849609375	154.8943023681641	740.4143676757812	436.8244018554688	-0.116414375603199	41.17056655883789	489.7110595703125	95.32524871826172	351.2081909179688	427.24462890625	100.2940979003906	40.17581939697266	315.9625854492188	32.11377716064453	38.9315071105957	328.1133117675781	87.29659271240234	31.02299690246582	431.7581787109375	-72.37619781494141	38.86689758300781	492.8859252929688	-141.9357147216797	919.8753051757812	195.4097442626953	110.5372085571289	955.0262451171875	470.4283752441406	
144	1.43	-27.56887245178223	996.5507202148438	444.0813903808594	-134.5951232910156	969.210205078125	308.750244140625	-65.32045745849609	1056.151245117188	369.0891418457031	116.254753112793	1227.00927734375	190.2713470458984	-67.32231903076172	1175.1865234375	382.46728515625	-32.1540412902832	1418.337158203125	335.0422973632812	72.61078643798828	1327.880737304688	231.9846038818359	-22.39686012268066	1282.46875	429.2815246582031	-121.191650390625	1385.69384765625	276.6534729003906	-98.26076507568359	1390.217651367188	174.2538604736328	-189.4749755859375	1284.796997070312	157.0073089599609	-231.3601684570312	1086.113403320312	166.3945465087891	-223.0330657958984	1080.504638671875	252.87744140625	-175.9973449707031	849.6348876953125	162.9506530761719	-246.5890960693359	847.177490234375	145.6229095458984	-245.3228912353516	981.2679443359375	159.5983276367188	-209.1016082763672	667.9913330078125	179.7581481933594	-257.18505859375	760.0081176757812	153.8905334472656	-191.9867706298828	749.37158203125	143.7551727294922	126.2481231689453	1387.567749023438	398.7274475097656	168.7768707275391	1328.631225585938	450.372802734375	233.5793762207031	1063.501098632812	476.0278930664062	147.4684753417969	1043.584716796875	438.7463073730469	319.2598876953125	906.0430908203125	302.1980590820312	342.0546875	876.1132202148438	379.5183410644531	272.7038879394531	1007.039001464844	450.4106140136719	382.7960205078125	742.836669921875	236.7376861572266	387.4148254394531	815.4334716796875	259.3375244140625	388.5548095703125	790.1268920898438	325.3804931640625	74.48881530761719	1584.378662109375	340.7018127441406	76.25042724609375	1580.807495117188	127.3099594116211	151.5606079101562	1580.08251953125	182.2007141113281	-45.41710662841797	1575.331787109375	254.9032440185547	168.5849914550781	951.7007446289062	335.2058410644531	0.7379884719848633	939.077880859375	146.9991149902344	93.37451934814453	507.5684509277344	71.85585784912109	16.90841674804688	630.5889892578125	93.26986694335938	47.55378341674805	62.38021469116211	154.0532684326172	65.53878021240234	276.9026489257812	102.4471664428711	245.5988464355469	56.82280731201172	82.207275390625	213.4987640380859	42.2220573425293	154.4374847412109	138.1337738037109	52.96878814697266	72.88723754882812	45.67309188842773	61.25463485717773	228.7508850097656	110.2928161621094	476.7573852539062	432.5878601074219	160.5765228271484	739.416259765625	432.1751098632812	-0.1044302433729172	41.19839477539062	489.6889953613281	96.88238525390625	350.6404418945312	425.9862365722656	100.3345947265625	40.29447174072266	315.9489135742188	32.06394577026367	38.93503189086914	328.1258544921875	87.30696105957031	31.04952430725098	431.7457275390625	-72.35298919677734	38.97847366333008	492.8860168457031	-135.7112274169922	918.7511596679688	191.2040710449219	118.0037460327148	954.4110717773438	464.8905639648438	
145	1.44	-20.17769432067871	995.9149780273438	439.0473327636719	-127.7044830322266	968.2691650390625	304.3074645996094	-58.20637130737305	1055.080322265625	364.4707641601562	121.6656875610352	1226.173828125	184.6917419433594	-60.28391265869141	1173.870483398438	378.1895446777344	-25.84752464294434	1417.054077148438	330.7440185546875	78.10845947265625	1326.832641601562	226.7795715332031	-15.17228031158447	1281.175415039062	424.849365234375	-115.3512725830078	1384.27978515625	273.1492919921875	-93.34365081787109	1388.940063476562	170.4990386962891	-184.9595336914062	1283.840087890625	154.6903228759766	-227.5721893310547	1085.49072265625	166.0284576416016	-217.607421875	1080.226806640625	252.4223480224609	-173.8612518310547	848.3599243164062	163.0686187744141	-244.6581878662109	846.48046875	146.8773040771484	-242.2933807373047	980.68310546875	160.0159606933594	-207.6626434326172	667.2267456054688	181.3346862792969	-255.5932006835938	759.4359741210938	155.7757568359375	-190.6530914306641	748.346435546875	144.6802520751953	132.9943237304688	1386.580932617188	393.1170959472656	176.1310424804688	1327.569213867188	444.2435302734375	242.3968505859375	1062.494018554688	467.67431640625	156.2115783691406	1042.359375	430.8023681640625	328.7490234375	911.1310424804688	288.9774780273438	352.642333984375	879.2807006835938	365.2143859863281	281.9689025878906	1007.172241210938	440.428955078125	394.1850891113281	750.9819946289062	218.0863647460938	397.997314453125	822.9413452148438	242.8826751708984	399.9761657714844	795.6748657226562	308.1302490234375	80.50536346435547	1583.29296875	335.4680480957031	80.73888397216797	1579.673706054688	122.0673904418945	156.4368896484375	1579.03564453125	176.4064178466797	-39.9462776184082	1574.140502929688	250.6009826660156	175.5634460449219	950.561279296875	329.4131774902344	6.770016670227051	938.0050048828125	141.8246612548828	97.30445098876953	505.6808166503906	67.62797546386719	20.78665161132812	628.6301879882812	88.87953186035156	72.61205291748047	56.5073356628418	132.8159484863281	79.30073547363281	273.6177062988281	90.21302795410156	269.7004089355469	62.39197540283203	58.71280288696289	239.2861785888672	43.98315048217773	130.6300048828125	162.5800933837891	53.81814956665039	50.33214950561523	71.86428833007812	52.7255973815918	207.4212951660156	112.9750137329102	476.0434265136719	430.6376342773438	166.2250823974609	738.3124389648438	427.471435546875	-0.1081085652112961	41.23153305053711	489.6461486816406	98.44606781005859	350.0593872070312	424.70556640625	100.3701400756836	40.38334274291992	315.920654296875	32.0074348449707	38.92582321166992	328.1051025390625	87.31509399414062	31.09897613525391	431.7176513671875	-72.32798004150391	39.11421585083008	492.87158203125	-129.4086608886719	917.4685668945312	186.8494110107422	125.4800262451172	953.7003173828125	459.234375	
